<svg width="26" height="26" viewBox="0 0 26 26" fill="none" xmlns="http://www.w3.org/2000/svg">
<path d="M13 0C10.4288 0 7.91543 0.762437 5.77759 2.1909C3.63975 3.61935 1.97351 5.64968 0.989572 8.02512C0.0056327 10.4006 -0.251811 13.0144 0.249797 15.5362C0.751405 18.0579 1.98953 20.3743 3.80762 22.1924C5.6257 24.0105 7.94208 25.2486 10.4638 25.7502C12.9856 26.2518 15.5995 25.9944 17.9749 25.0104C20.3503 24.0265 22.3807 22.3603 23.8091 20.2224C25.2376 18.0846 26 15.5712 26 13C25.9964 9.5533 24.6256 6.24882 22.1884 3.81163C19.7512 1.37445 16.4467 0.00363977 13 0ZM24 13C24.0011 14.4112 23.7295 15.8094 23.2 17.1175L17.6125 13.6812C17.3749 13.5347 17.1092 13.4397 16.8325 13.4025L13.98 13.0175C13.5869 12.9662 13.1875 13.0321 12.8317 13.2069C12.476 13.3817 12.1797 13.6576 11.98 14H10.89L10.415 13.0175C10.2837 12.7439 10.0915 12.504 9.85318 12.3162C9.61485 12.1283 9.33669 11.9975 9.04001 11.9338L8.04001 11.7175L9.01751 10H11.1063C11.4442 9.99934 11.7766 9.91335 12.0725 9.75L13.6038 8.905C13.7383 8.83001 13.8641 8.74029 13.9788 8.6375L17.3425 5.595C17.6798 5.29277 17.9039 4.8846 17.978 4.43784C18.0521 3.99108 17.9717 3.53241 17.75 3.1375L17.705 3.05625C19.5873 3.94875 21.1778 5.35674 22.292 7.11682C23.4063 8.8769 23.9985 10.9169 24 13ZM14.9138 2.1675L16 4.1125L12.6363 7.155L11.1063 8H9.01751C8.66593 7.99948 8.32043 8.09165 8.01583 8.26721C7.71123 8.44277 7.45829 8.69553 7.28251 9L6.19126 10.9038L4.92251 7.52375L6.29001 4.29C7.50043 3.35474 8.89287 2.68262 10.3781 2.31669C11.8633 1.95076 13.4086 1.8991 14.915 2.165L14.9138 2.1675ZM2.00001 13C1.99834 11.365 2.36311 9.75046 3.06751 8.275L4.48501 12.0588C4.60313 12.372 4.79802 12.6506 5.0518 12.869C5.30558 13.0874 5.61012 13.2386 5.93751 13.3088L8.61626 13.885L9.09251 14.875C9.25779 15.2117 9.51393 15.4955 9.83201 15.6943C10.1501 15.8931 10.5174 15.999 10.8925 16H11.0775L10.1738 18.0287C10.0145 18.386 9.96352 18.782 10.0271 19.168C10.0906 19.5539 10.2659 19.9127 10.5313 20.2L10.5488 20.2175L13 22.7425L12.7575 23.9925C9.88479 23.9256 7.15195 22.7387 5.14216 20.685C3.13236 18.6313 2.00477 15.8735 2.00001 13ZM14.8225 23.8475L14.9638 23.1213C15.0218 22.8127 15.0068 22.4949 14.92 22.1931C14.8332 21.8914 14.6769 21.6142 14.4638 21.3838C14.4576 21.3782 14.4518 21.3724 14.4463 21.3662L12 18.8425L13.7125 15L16.565 15.385L22.28 18.9C21.452 20.2003 20.3605 21.3125 19.076 22.1647C17.7914 23.0169 16.3424 23.5902 14.8225 23.8475Z" fill="#EF5F4C"/>
</svg>
